<svg width="1024" height="1024" viewBox="0 0 1024 1024" fill="none" xmlns="http://www.w3.org/2000/svg">
  <defs>
    <linearGradient id="bg" x1="140" y1="96" x2="884" y2="928" gradientUnits="userSpaceOnUse">
      <stop stop-color="#F5FAFF"/>
      <stop offset="0.42" stop-color="#D5F0FF"/>
      <stop offset="1" stop-color="#A8DBFF"/>
    </linearGradient>
    <linearGradient id="photo" x1="246" y1="210" x2="778" y2="760" gradientUnits="userSpaceOnUse">
      <stop stop-color="#EFF7FF"/>
      <stop offset="1" stop-color="#D7E9FF"/>
    </linearGradient>
    <linearGradient id="sky" x1="282" y1="258" x2="735" y2="651" gradientUnits="userSpaceOnUse">
      <stop stop-color="#A8D8FF"/>
      <stop offset="1" stop-color="#EAF7FF"/>
    </linearGradient>
    <linearGradient id="badge" x1="612" y1="654" x2="820" y2="856" gradientUnits="userSpaceOnUse">
      <stop stop-color="#FFB74D"/>
      <stop offset="1" stop-color="#FF7A00"/>
    </linearGradient>
    <filter id="shadow" x="110" y="100" width="804" height="824" filterUnits="userSpaceOnUse" color-interpolation-filters="sRGB">
      <feFlood flood-opacity="0" result="BackgroundImageFix"/>
      <feColorMatrix in="SourceAlpha" type="matrix" values="0 0 0 0 0 0 0 0 0 0 0 0 0 0 0 0 0 0 127 0" result="hardAlpha"/>
      <feOffset dy="28"/>
      <feGaussianBlur stdDeviation="34"/>
      <feColorMatrix type="matrix" values="0 0 0 0 0.094 0 0 0 0 0.239 0 0 0 0 0.369 0 0 0 0.22 0"/>
      <feBlend mode="normal" in2="BackgroundImageFix" result="effect1_dropShadow_1_2"/>
      <feBlend mode="normal" in="SourceGraphic" in2="effect1_dropShadow_1_2" result="shape"/>
    </filter>
  </defs>

  <rect x="96" y="96" width="832" height="832" rx="182" fill="url(#bg)"/>
  <circle cx="802" cy="222" r="68" fill="#FFFFFF" fill-opacity="0.55"/>
  <circle cx="220" cy="806" r="54" fill="#FFFFFF" fill-opacity="0.35"/>

  <g filter="url(#shadow)">
    <rect x="224" y="182" width="576" height="620" rx="72" fill="white"/>
    <rect x="248" y="206" width="528" height="572" rx="56" fill="url(#photo)"/>

    <rect x="282" y="246" width="460" height="332" rx="36" fill="url(#sky)"/>
    <circle cx="628" cy="336" r="44" fill="#FFF2BE"/>
    <path d="M282 508C338 462 384 448 434 466C484 484 506 540 564 536C622 532 653 468 742 450V578H282V508Z" fill="#73BF7C"/>
    <path d="M282 530C352 492 411 500 458 530C505 560 549 587 617 568C664 555 709 528 742 506V578H282V530Z" fill="#4A9763"/>

    <rect x="282" y="610" width="214" height="28" rx="14" fill="#C9DDF2"/>
    <rect x="282" y="654" width="332" height="28" rx="14" fill="#DDE9F7"/>
    <rect x="282" y="698" width="262" height="28" rx="14" fill="#DDE9F7"/>

    <path d="M686 468C714 489 730 514 734 544" stroke="#2B7FFF" stroke-width="24" stroke-linecap="round"/>
    <path d="M718 544L736 546L742 528" stroke="#2B7FFF" stroke-width="24" stroke-linecap="round" stroke-linejoin="round"/>

    <g>
      <rect x="574" y="622" width="214" height="176" rx="42" fill="url(#badge)"/>
      <rect x="590" y="638" width="182" height="144" rx="30" fill="#FFF8EF" fill-opacity="0.18"/>
      <path d="M726 622V702C726 730 748 752 776 752H788" fill="#FFD7AF" fill-opacity="0.6"/>
      <path d="M726 622V702C726 730 748 752 776 752H788" stroke="#FFE6CC" stroke-width="10" stroke-linejoin="round"/>
      <text x="680" y="734" text-anchor="middle" font-family="Arial, Helvetica, sans-serif" font-size="72" font-weight="800" fill="white">JPG</text>
    </g>
  </g>
</svg>
